<?xml version="1.0" encoding="UTF-8"?>
<svg id="_Шар_1" data-name="Шар 1" xmlns="http://www.w3.org/2000/svg" viewBox="0 0 2086.66 340">
  <defs>
    <style>
      .cls-1 {
        fill: none;
      }

      .cls-2 {
        fill: #706f6f;
      }
    </style>
  </defs>
  <g>
    <g>
      <path d="M201.12,1.55l-40.09,23.72L120.95,1.55c-7.31-4.33-16.55.94-16.55,9.44v62.48c0,8.49,9.24,13.76,16.55,9.44l40.09-23.72,40.09,23.72c7.31,4.33,16.55-.94,16.55-9.44V10.98c0-8.49-9.24-13.76-16.55-9.44Z"/>
      <path d="M176.11,326.76l42.38-204.97h44.31c8.91,0,16.13-7.22,16.13-16.13v-38.52c0-4.52,5.75-6.44,8.47-2.83l32.32,42.93c3.04,4.04,3.16,9.56.29,13.73l-29.64,43.08,11.9,18.84c2.7,4.27,2.36,9.78-.82,13.69l-111.39,136.81c-5.25,6.45-15.63,1.52-13.95-6.63Z"/>
      <path d="M145.97,326.76l-42.38-204.97h-44.31c-8.91,0-16.13-7.22-16.13-16.13v-38.52c0-4.52-5.75-6.44-8.47-2.83L2.36,107.24c-3.04,4.04-3.16,9.56-.29,13.73l29.64,43.08-11.9,18.84c-2.7,4.27-2.36,9.78.82,13.69l111.39,136.81c5.25,6.45,15.63,1.52,13.95-6.63Z"/>
    </g>
    <g>
      <path d="M506.57,308.3c-48.38,0-76.47-32.39-76.47-79.21v-73.74h-38.23v-47.21h38.23v-45.65l50.72-12.87v58.53h67.89v47.21h-67.89v70.23c0,26.14,13.26,36.68,36.28,36.68,10.92,0,21.85-2.34,31.6-5.85v44.48c-14.83,5.07-28.09,7.42-42.14,7.42Z"/>
      <path d="M739.61,303.23l-6.63-23.8c-17.17,18.73-40.58,28.87-67.89,28.87-55.01,0-94.42-42.92-94.42-102.61s39.41-102.61,94.42-102.61c27.31,0,50.72,10.14,67.89,28.87l6.63-23.8h44.09v195.08h-44.09ZM677.19,149.12c-31.99,0-55.79,24.58-55.79,56.57s23.8,56.57,55.79,56.57,55.79-24.58,55.79-56.57-23.8-56.57-55.79-56.57Z"/>
      <path d="M853.15,16.85c16.78,0,29.26,12.1,29.26,29.26s-12.49,29.26-29.26,29.26-29.26-12.1-29.26-29.26,12.49-29.26,29.26-29.26ZM827.79,108.15h50.72v195.08h-50.72V108.15Z"/>
      <path d="M922.09,30.11h50.72v273.11h-50.72V30.11Z"/>
      <path d="M1108.11,103.08c59.3,0,105.34,43.31,105.34,102.61s-46.04,102.61-105.34,102.61-105.34-43.31-105.34-102.61,46.04-102.61,105.34-102.61ZM1108.11,150.29c-31.99,0-54.62,24.58-54.62,55.4s22.63,55.4,54.62,55.4,54.62-24.58,54.62-55.4-22.63-55.4-54.62-55.4Z"/>
      <path d="M1242.86,108.15h44.09l6.63,29.65h.78c5.07-16,23.02-34.72,53.84-34.72h9.36v51.89c-4.68-1.95-12.88-3.12-19.12-3.12-23.41,0-44.87,17.17-44.87,46.04v105.34h-50.72V108.15Z"/>
    </g>
  </g>
  <g>
    <path class="cls-2" d="M1489.29,311.82c-13.28,0-24.98-3.54-35.08-10.62-10.11-7.08-17.97-16.99-23.58-29.74-5.62-12.74-8.42-27.61-8.42-44.6s2.83-31.69,8.5-44.38c5.66-12.69,13.55-22.56,23.66-29.59s21.8-10.55,35.08-10.55c9.96,0,18.26,1.78,24.9,5.35,6.64,3.57,11.99,7.94,16.04,13.11,4.05,5.18,7.15,10.25,9.3,15.23h1.61v-85.99h19.78v218.26h-19.19v-30.62h-2.2c-2.15,5.08-5.27,10.25-9.38,15.53s-9.47,9.69-16.11,13.26c-6.64,3.56-14.94,5.35-24.9,5.35ZM1491.93,293.8c10.55,0,19.5-2.88,26.88-8.64,7.37-5.76,12.99-13.7,16.85-23.8,3.86-10.11,5.79-21.65,5.79-34.64s-1.93-24.46-5.79-34.42c-3.86-9.96-9.47-17.77-16.85-23.44-7.38-5.66-16.33-8.5-26.88-8.5s-19.68,2.93-27.1,8.79c-7.42,5.86-13.04,13.79-16.85,23.8-3.81,10.01-5.71,21.27-5.71,33.76s1.93,23.83,5.79,33.98c3.86,10.16,9.5,18.21,16.92,24.17,7.42,5.96,16.41,8.94,26.95,8.94Z"/>
    <path class="cls-2" d="M1675.18,311.82c-14.26,0-26.81-3.59-37.65-10.77s-19.34-17.14-25.49-29.88-9.23-27.37-9.23-43.87,3.08-31.57,9.23-44.31,14.65-22.71,25.49-29.88,23.39-10.77,37.65-10.77,26.68,3.59,37.57,10.77c10.89,7.18,19.41,17.14,25.56,29.88s9.23,27.52,9.23,44.31-3.05,31.13-9.16,43.87c-6.1,12.74-14.6,22.71-25.49,29.88-10.89,7.18-23.46,10.77-37.72,10.77ZM1675.18,293.8c11.23,0,20.75-3.03,28.56-9.08,7.81-6.05,13.74-14.11,17.8-24.17,4.05-10.06,6.08-21.14,6.08-33.25s-2.05-23.36-6.15-33.47-10.06-18.21-17.87-24.32c-7.81-6.1-17.29-9.16-28.42-9.16s-20.58,3.05-28.34,9.16c-7.76,6.1-13.7,14.21-17.8,24.32s-6.15,21.27-6.15,33.47,2.03,23.19,6.08,33.25c4.05,10.06,9.96,18.12,17.72,24.17,7.76,6.06,17.26,9.08,28.49,9.08Z"/>
    <path class="cls-2" d="M1853.02,311.38c-14.26,0-26.81-3.56-37.65-10.69-10.84-7.13-19.34-17.04-25.49-29.74-6.15-12.69-9.23-27.29-9.23-43.8s3.08-31.57,9.23-44.31,14.65-22.68,25.49-29.81c10.84-7.13,23.39-10.69,37.65-10.69,8.3,0,15.92,1.22,22.85,3.66,6.93,2.44,13.08,5.69,18.46,9.74,5.37,4.05,9.84,8.55,13.4,13.48,3.56,4.93,6.17,9.89,7.84,14.87l-18.9,5.86c-.88-3.03-2.49-6.25-4.83-9.67-2.34-3.42-5.35-6.64-9.01-9.67-3.66-3.03-7.98-5.49-12.96-7.4s-10.6-2.86-16.85-2.86c-11.13,0-20.58,3.03-28.34,9.08-7.76,6.06-13.7,14.11-17.8,24.17-4.1,10.06-6.15,21.24-6.15,33.54s2.05,23.19,6.15,33.25c4.1,10.06,10.03,18.09,17.8,24.1s17.21,9.01,28.34,9.01c6.35,0,12.06-.98,17.14-2.93,5.08-1.95,9.5-4.47,13.26-7.54,3.76-3.08,6.81-6.4,9.16-9.96,2.34-3.56,3.96-6.91,4.83-10.03l18.75,5.86c-1.56,5.08-4.15,10.11-7.76,15.09-3.61,4.98-8.16,9.55-13.62,13.7-5.47,4.15-11.72,7.47-18.75,9.96s-14.7,3.74-23,3.74Z"/>
    <path class="cls-2" d="M2009.02,311.82c-10.74,0-20.27-1.64-28.56-4.91-8.3-3.27-15.14-8.06-20.51-14.36-5.37-6.3-9.03-14.04-10.99-23.22l19.04-4.54c2.34,9.86,7.01,17.21,13.99,22.05,6.98,4.83,15.89,7.25,26.73,7.25,12.4,0,22.34-2.78,29.81-8.35s11.21-12.5,11.21-20.8c0-6.64-2.22-12.16-6.67-16.55-4.45-4.39-11.11-7.67-20-9.81l-26.66-6.45c-14.06-3.42-24.59-8.76-31.57-16.04-6.98-7.27-10.47-16.43-10.47-27.47,0-9.18,2.46-17.23,7.4-24.17,4.93-6.93,11.72-12.35,20.36-16.26,8.64-3.9,18.48-5.86,29.52-5.86,10.35,0,19.24,1.59,26.66,4.76,7.42,3.17,13.55,7.64,18.38,13.4,4.83,5.76,8.47,12.6,10.91,20.51l-18.16,4.69c-2.54-7.52-6.76-13.74-12.67-18.68-5.91-4.93-14.23-7.4-24.98-7.4s-19.78,2.59-26.81,7.76c-7.03,5.18-10.55,11.87-10.55,20.07,0,6.94,2.37,12.6,7.1,16.99,4.74,4.39,12.13,7.81,22.19,10.25l25.05,6.01c13.87,3.42,24.24,8.74,31.13,15.97,6.88,7.23,10.33,16.26,10.33,27.1,0,9.38-2.59,17.68-7.76,24.9-5.18,7.23-12.38,12.89-21.61,16.99s-19.85,6.15-31.86,6.15Z"/>
  </g>
  <rect class="cls-1" x="1009.23" y="945.84" width="3.45" height="0"/>
</svg>